<svg width="34" height="31" viewBox="0 0 34 31" fill="none" xmlns="http://www.w3.org/2000/svg">
<path d="M27.7962 0H6.21045C2.78215 0 0 2.77472 0 6.20302V18.8311C0 22.2587 2.78289 25.0282 6.21045 25.0282H19.9355L22.8335 29.1903C23.2249 29.7518 23.8659 30.0882 24.5499 30.0897C25.2332 30.0912 25.8756 29.7607 26.2685 29.2007L29.3351 24.8448C32.017 24.1585 34 21.7269 34 18.8304V6.20302C34 2.77472 31.2245 0 27.7962 0ZM11.4606 14.5346C10.3428 14.5346 9.43599 13.6322 9.43599 12.5167C9.43599 11.4034 10.3428 10.4995 11.4606 10.4995C12.5791 10.4995 13.4852 11.4034 13.4852 12.5167C13.4852 13.6322 12.5791 14.5346 11.4606 14.5346ZM17.0033 14.5346C15.8856 14.5346 14.9787 13.6322 14.9787 12.5167C14.9787 11.4034 15.8856 10.4995 17.0033 10.4995C18.1218 10.4995 19.0272 11.4034 19.0272 12.5167C19.0272 13.6322 18.1218 14.5346 17.0033 14.5346ZM22.5461 14.5346C21.4276 14.5346 20.5208 13.6322 20.5208 12.5167C20.5208 11.4034 21.4276 10.4995 22.5461 10.4995C23.6646 10.4995 24.5707 11.4034 24.5707 12.5167C24.5707 13.6322 23.6646 14.5346 22.5461 14.5346Z" fill="#3C3C5C"/>
</svg>
