<svg width="34" height="26" viewBox="0 0 34 26" fill="none" xmlns="http://www.w3.org/2000/svg">
<path d="M31.875 10.875H2.125C0.951402 10.875 0 11.8264 0 13C0 14.1736 0.951402 15.125 2.125 15.125H31.875C33.0486 15.125 34 14.1736 34 13C34 11.8264 33.0486 10.875 31.875 10.875Z" fill="#3C3C5C"/>
<path d="M2.125 5.20837H31.875C33.0486 5.20837 34 4.25697 34 3.08337C34 1.90978 33.0486 0.958374 31.875 0.958374H2.125C0.951402 0.958374 0 1.90978 0 3.08337C0 4.25697 0.951402 5.20837 2.125 5.20837Z" fill="#3C3C5C"/>
<path d="M31.875 20.7917H2.125C0.951402 20.7917 0 21.7431 0 22.9167C0 24.0903 0.951402 25.0417 2.125 25.0417H31.875C33.0486 25.0417 34 24.0903 34 22.9167C34 21.7431 33.0486 20.7917 31.875 20.7917Z" fill="#3C3C5C"/>
</svg>
