<?xml version="1.0" standalone="no"?>
<!DOCTYPE svg PUBLIC "-//W3C//DTD SVG 20010904//EN"
 "http://www.w3.org/TR/2001/REC-SVG-20010904/DTD/svg10.dtd">
<svg version="1.0" xmlns="http://www.w3.org/2000/svg"
 width="900.000000pt" height="900.000000pt" viewBox="0 0 900.000000 900.000000"
 preserveAspectRatio="xMidYMid meet">
<metadata>
Created by potrace 1.14, written by Peter Selinger 2001-2017
</metadata>
<g transform="translate(0.000000,900.000000) scale(0.100000,-0.100000)"
fill="#000000" stroke="none">
<path d="M4195 8984 c-284 -18 -670 -84 -934 -159 -477 -136 -878 -321 -1296
-600 -931 -622 -1603 -1577 -1870 -2659 -52 -209 -95 -455 -94 -529 1 -40 5
-23 20 73 103 673 325 1262 687 1820 270 418 645 819 1052 1129 667 508 1460
816 2310 896 222 22 731 16 940 -10 1535 -189 2851 -1126 3525 -2510 492
-1011 584 -2171 258 -3270 -303 -1025 -1011 -1948 -1930 -2519 -529 -328
-1038 -517 -1698 -630 -70 -12 -74 -14 -34 -15 80 -2 379 60 607 125 459 131
965 375 1353 652 523 373 944 828 1273 1375 417 692 636 1489 636 2312 0 1005
-313 1939 -916 2736 -132 173 -225 280 -399 455 -361 364 -729 631 -1185 859
-483 242 -950 379 -1530 451 -120 14 -638 27 -775 18z"/>
<path d="M4145 8790 c-912 -81 -1717 -405 -2414 -974 -158 -129 -441 -407
-560 -551 -412 -496 -690 -1022 -862 -1629 -169 -598 -204 -1262 -98 -1891
293 -1753 1657 -3165 3399 -3518 318 -65 503 -82 880 -82 362 1 542 17 835 76
1028 209 1928 763 2572 1587 413 527 705 1165 832 1816 92 471 106 999 40
1461 -177 1230 -877 2329 -1914 3008 -457 299 -921 492 -1482 616 -98 22 -228
43 -413 67 -137 18 -668 27 -815 14z m570 -124 c79 -17 168 -57 222 -102 l43
-35 0 -145 c0 -79 -3 -144 -8 -144 -4 0 -22 26 -40 59 -105 192 -334 255 -510
141 -60 -38 -120 -110 -149 -176 -23 -57 -23 -185 1 -249 41 -108 109 -176
216 -216 77 -29 205 -24 273 11 71 36 121 83 164 153 l38 62 3 -40 c2 -22 1
-91 -3 -153 l-7 -114 -52 -32 c-102 -64 -177 -86 -296 -86 -96 0 -147 13 -239
56 -94 46 -183 133 -232 229 -44 85 -59 149 -59 258 0 151 46 262 155 373 131
132 306 188 480 150z m1187 -275 c5 -4 -24 -85 -62 -181 -39 -96 -70 -178 -70
-182 0 -25 137 7 210 50 61 35 136 107 167 159 14 24 29 43 33 43 5 0 41 -12
79 -26 45 -17 71 -32 71 -41 0 -28 -72 -135 -127 -189 -90 -88 -212 -151 -332
-170 l-41 -7 0 -64 c0 -117 60 -258 143 -335 l40 -38 -28 -72 c-15 -40 -31
-77 -36 -82 -11 -13 -112 77 -166 148 -60 79 -91 151 -112 256 l-17 85 -53
-135 c-29 -74 -56 -139 -61 -143 -8 -10 -153 46 -158 61 -3 9 333 865 358 911
9 18 13 18 82 -11 40 -17 76 -33 80 -37z m-2659 -2 c22 -11 41 -41 84 -137 31
-67 53 -125 50 -128 -3 -4 -25 8 -47 26 -132 105 -321 107 -454 5 -120 -91
-168 -290 -104 -427 37 -80 99 -142 177 -180 58 -29 76 -32 151 -32 72 0 94 4
147 28 119 54 199 171 210 306 3 38 9 70 13 70 9 0 120 -246 120 -266 0 -30
-85 -147 -138 -190 -109 -89 -212 -127 -342 -127 -104 1 -161 14 -247 56 -126
61 -231 183 -274 316 -30 94 -30 241 1 331 59 174 179 291 360 352 67 22 247
21 293 -3z m-1335 -871 c70 -73 170 -178 223 -233 53 -55 117 -122 143 -150
68 -71 96 -134 96 -216 0 -83 -31 -148 -111 -233 l-58 -61 -55 55 c-31 30 -56
59 -56 66 0 6 10 19 21 30 32 28 75 95 83 127 5 21 1 38 -14 63 -25 40 -32 41
-71 13 -85 -60 -231 -77 -335 -38 -62 23 -149 100 -297 262 l-80 88 54 55 c29
30 60 54 67 54 8 0 73 -61 146 -137 72 -75 145 -142 163 -150 18 -7 53 -13 78
-13 49 0 119 24 113 39 -1 4 -84 92 -183 195 -99 103 -181 191 -183 195 -3 8
112 121 122 121 4 0 64 -60 134 -132z m2922 -88 c228 -29 483 -90 687 -165
138 -51 438 -201 566 -283 703 -454 1171 -1147 1326 -1963 63 -330 67 -717 10
-1049 -253 -1472 -1556 -2533 -3039 -2475 -102 4 -210 10 -240 13 l-55 7 -3
40 c-2 22 0 60 3 85 6 41 17 54 136 169 134 129 219 230 264 315 14 27 43 69
65 93 47 54 95 187 87 243 -3 23 -27 69 -61 119 -102 150 -77 198 143 272 92
32 268 122 346 177 28 20 78 63 112 95 34 33 67 56 72 52 6 -3 11 -31 11 -61
0 -84 41 -144 89 -129 10 3 29 -4 45 -16 34 -27 84 -22 160 15 45 22 66 26
145 26 l91 0 50 48 c39 38 50 55 50 80 0 18 -3 32 -7 33 -5 0 -35 3 -68 5 -78
6 -199 31 -239 49 -100 47 -166 117 -166 175 0 14 22 59 48 100 43 67 54 77
93 89 74 22 110 46 217 143 57 51 127 107 156 123 72 41 143 95 191 145 51 53
84 70 136 70 102 0 158 -41 208 -152 25 -57 27 -68 15 -79 -15 -13 -19 -49 -5
-49 5 0 7 -9 4 -20 -5 -21 11 -28 22 -10 13 22 31 9 31 -22 1 -44 73 -192 120
-247 51 -59 111 -101 144 -101 45 0 47 5 66 200 5 50 2 62 -30 122 -20 37 -43
99 -51 138 -19 90 -32 109 -108 158 -99 65 -161 125 -196 192 -44 82 -77 103
-153 94 -32 -3 -58 -2 -57 3 0 10 106 87 143 104 24 11 33 10 69 -9 23 -11 54
-23 69 -26 37 -8 144 -113 140 -138 -2 -13 3 -21 16 -25 19 -5 64 -96 107
-215 30 -87 192 -207 296 -221 20 -3 41 -2 47 2 8 4 9 45 5 134 l-6 128 -49
60 c-46 57 -48 63 -48 121 0 96 -40 143 -176 203 -78 35 -178 103 -265 181
-106 95 -120 100 -217 69 -44 -14 -97 -39 -118 -56 -22 -17 -75 -49 -119 -71
-44 -22 -105 -55 -136 -74 -31 -19 -61 -34 -65 -34 -5 0 -24 43 -43 95 -64
175 -59 169 -244 302 -44 32 -102 122 -191 301 l-37 73 29 34 c17 18 35 49 42
69 12 37 82 92 130 102 40 8 55 19 59 45 4 28 17 39 48 39 12 0 30 11 41 25
17 22 20 37 17 106 -5 91 -9 101 -95 199 -38 43 -85 81 -137 112 -78 46 -186
128 -268 204 -22 20 -60 44 -85 54 -50 20 -49 17 -83 165 -18 82 -26 100 -41
100 -14 0 -24 -17 -42 -70 -13 -38 -24 -71 -24 -72 0 -2 -15 -3 -32 -3 -18 -1
-44 -7 -58 -15 -14 -8 -32 -14 -40 -15 -8 0 -52 34 -98 76 -46 43 -88 74 -96
71 -29 -11 -35 -137 -9 -212 12 -36 13 -50 4 -53 -24 -8 -146 -137 -147 -156
-1 -11 -6 -22 -12 -24 -6 -2 -26 -13 -43 -25 -38 -26 -52 -52 -23 -43 13 4 23
-1 31 -13 11 -17 8 -21 -19 -30 -17 -6 -37 -19 -45 -28 -12 -16 -13 -11 -8 42
4 33 13 72 21 87 8 15 11 34 8 43 -4 9 0 23 8 33 9 9 18 29 22 44 3 15 16 36
28 48 18 16 21 31 22 93 1 65 4 77 29 106 15 18 27 39 27 46 0 23 -20 28 -39
11 -28 -25 -40 -20 -35 17 2 17 18 156 34 307 17 151 37 324 45 385 21 156 19
275 -5 275 -21 0 -70 -161 -84 -276 -8 -65 -26 -207 -40 -314 -71 -536 -63
-500 -114 -500 -29 0 -40 -27 -18 -43 16 -12 16 -16 -4 -67 -11 -30 -25 -75
-31 -100 -29 -130 -47 -183 -105 -305 -23 -49 -45 -101 -49 -115 -10 -32 -65
-100 -81 -100 -7 0 -25 -13 -41 -30 -15 -16 -33 -30 -40 -30 -6 0 -14 -9 -18
-19 -3 -11 -26 -29 -50 -41 -24 -11 -49 -27 -55 -35 -17 -21 -80 -58 -86 -52
-3 3 -1 20 6 39 15 43 0 85 -32 90 -16 2 -26 13 -33 35 -6 17 -18 40 -28 51
-9 10 -17 24 -17 31 0 6 -11 22 -24 34 -13 12 -57 58 -96 102 -77 84 -110 107
-110 78 0 -10 12 -28 28 -41 l27 -23 -25 6 c-87 22 -107 26 -147 24 -24 -2
-49 3 -55 9 -7 7 -23 12 -36 12 -13 0 -43 11 -68 25 -25 14 -47 25 -49 25 -13
0 -1 -28 32 -73 36 -49 37 -53 43 -162 6 -98 10 -115 33 -150 15 -22 27 -45
27 -52 0 -7 15 -24 34 -38 22 -17 40 -43 50 -72 9 -26 16 -47 16 -49 0 -7 -98
-24 -143 -24 -29 0 -73 -6 -98 -14 -41 -14 -192 -23 -709 -46 -150 -6 -187
-11 -260 -34 -233 -75 -304 -135 -397 -334 -34 -72 -57 -132 -53 -132 5 0 38
16 73 35 53 29 74 35 123 35 51 0 66 -5 101 -30 37 -27 47 -30 106 -28 52 3
69 -1 86 -16 25 -23 27 -56 5 -97 -37 -72 3 -116 84 -94 83 21 94 9 85 -100
-5 -78 -5 -81 19 -92 27 -12 75 3 104 32 9 8 23 15 32 15 12 0 9 -7 -12 -29
-16 -16 -25 -34 -21 -40 7 -13 60 15 170 90 83 56 109 64 164 49 42 -11 77
-54 66 -83 -6 -13 -86 -57 -106 -57 -6 0 -43 -15 -83 -33 -62 -29 -81 -45
-135 -111 -35 -42 -60 -80 -57 -83 3 -4 40 11 82 32 43 22 78 35 82 29 4 -5
19 -17 35 -27 20 -13 27 -25 27 -50 0 -37 15 -57 42 -57 15 0 17 -5 12 -26 -7
-28 7 -44 39 -44 10 0 42 22 70 49 29 27 77 61 107 76 85 40 93 45 185 125 48
41 120 100 160 130 40 30 93 78 119 105 l45 50 74 -78 c69 -73 76 -78 126 -84
40 -4 59 -2 86 13 41 22 46 18 73 -54 l20 -52 -21 -15 c-12 -8 -27 -15 -34
-15 -13 0 -43 -38 -43 -56 0 -6 14 -29 30 -50 l31 -38 -33 -17 -33 -18 -85 46
c-47 25 -106 65 -131 88 -59 55 -77 64 -119 60 -30 -2 -35 -6 -32 -25 2 -19
-2 -22 -28 -18 -21 3 -35 -1 -47 -15 -16 -17 -17 -20 -1 -31 9 -6 18 -21 20
-31 3 -21 -6 -23 -49 -9 -17 5 -23 2 -23 -9 0 -9 5 -19 10 -22 20 -12 10 -27
-15 -23 -38 8 -40 -8 -5 -42 21 -20 26 -30 15 -30 -8 0 -15 -7 -15 -15 0 -9 9
-15 24 -15 13 0 30 -10 38 -22 15 -22 23 -23 171 -17 57 2 87 -9 87 -30 0 -23
70 -54 104 -45 28 7 106 -30 106 -50 0 -7 -28 -24 -62 -37 -76 -28 -218 -121
-276 -180 -29 -29 -68 -94 -118 -191 -41 -81 -74 -152 -74 -158 0 -7 -11 -33
-23 -59 -13 -25 -34 -78 -47 -116 -17 -51 -38 -88 -79 -137 -31 -37 -65 -82
-76 -100 -11 -18 -43 -47 -70 -65 -115 -73 -142 -99 -153 -145 -6 -25 -21 -57
-32 -71 -12 -15 -19 -31 -16 -36 3 -5 -1 -14 -9 -21 -8 -7 -15 -19 -15 -27 0
-8 -22 -57 -50 -109 -27 -52 -50 -104 -50 -114 0 -11 -3 -20 -6 -20 -14 0
-185 150 -284 250 -432 432 -724 995 -825 1596 -144 846 79 1705 617 2375 196
244 472 488 743 658 139 87 387 209 539 265 240 88 529 153 776 175 128 12
494 6 610 -9z m2572 -11 c48 -7 88 -15 88 -19 0 -5 -97 -120 -216 -257 -119
-136 -268 -308 -331 -381 -128 -148 -110 -142 -196 -66 -26 23 -47 46 -47 51
0 6 34 49 76 97 42 48 75 88 73 90 -2 2 -41 35 -86 74 -45 40 -89 72 -98 72
-18 0 -84 -43 -152 -98 -23 -19 -47 -32 -52 -30 -21 7 -120 93 -121 105 0 16
79 84 159 137 182 119 380 192 631 229 55 9 188 6 272 -4z m569 -838 c90 -34
180 -123 258 -253 l23 -38 -59 -36 c-50 -31 -285 -167 -689 -400 -61 -35 -115
-64 -120 -64 -10 0 -84 127 -84 144 0 6 55 42 121 80 66 38 122 72 124 77 3 4
-18 5 -47 3 -124 -12 -314 50 -408 134 l-43 38 72 42 c40 23 75 42 78 42 3 0
33 -13 67 -30 62 -30 190 -58 218 -48 9 4 18 25 21 52 17 123 120 237 246 273
59 17 152 10 222 -16z m-6733 -33 c75 -28 152 -106 181 -183 29 -78 37 -175
18 -240 -8 -27 -16 -56 -18 -64 -3 -10 34 -37 108 -80 61 -36 115 -69 118 -72
8 -9 -64 -139 -81 -146 -7 -2 -129 62 -271 144 -142 82 -332 192 -422 243 -90
52 -165 100 -168 107 -3 7 21 51 52 98 128 193 298 261 483 193z m3192 -832
c0 -3 -4 -8 -10 -11 -5 -3 -10 -1 -10 4 0 6 5 11 10 11 6 0 10 -2 10 -4z m875
-254 c22 -2 44 -8 49 -12 15 -14 -2 -56 -28 -70 -23 -12 -29 -10 -71 24 -39
32 -44 40 -34 57 7 14 16 18 27 13 9 -4 35 -9 57 -12z m173 -66 c2 -27 -4 -48
-25 -81 -35 -55 -50 -61 -74 -33 -23 28 -24 42 -3 59 8 7 24 29 34 50 31 60
63 63 68 5z m-1178 -104 c0 -4 -9 -13 -20 -20 -22 -13 -27 -3 -8 16 14 14 28
16 28 4z m-65 -63 c5 -15 -1 -29 -20 -49 -16 -17 -27 -39 -27 -59 -1 -39 -16
-50 -35 -26 -23 33 -16 87 16 123 34 37 57 41 66 11z m65 -28 c0 -6 -4 -13
-10 -16 -5 -3 -10 1 -10 9 0 9 5 16 10 16 6 0 10 -4 10 -9z m-159 -123 c11
-21 11 -22 -4 -9 -10 7 -17 17 -17 22 0 15 9 10 21 -13z m62 -30 c-13 -12 -26
-18 -30 -14 -4 4 1 14 11 22 31 22 43 17 19 -8z m-73 -38 c19 0 50 -25 50 -41
0 -17 -31 -9 -55 16 -16 15 -24 34 -24 52 l2 28 4 -27 c3 -19 10 -28 23 -28z
m110 -70 c0 -13 -28 -25 -38 -16 -3 4 0 11 8 16 20 13 30 12 30 0z m-654 -906
c18 -14 18 -14 -6 -3 -31 14 -36 19 -24 19 6 0 19 -7 30 -16z m141 -112 c-21
-4 -206 45 -224 59 -34 29 9 24 119 -14 67 -23 114 -43 105 -45z m-168 -24
c45 -17 79 -33 77 -36 -5 -4 -196 56 -205 64 -16 15 62 -2 128 -28z m126 -8
c8 -13 -5 -13 -25 0 -13 8 -13 10 2 10 9 0 20 -4 23 -10z m3884 -1410 c199
-157 361 -290 361 -297 0 -7 -23 -40 -51 -73 -45 -55 -53 -60 -67 -47 -10 7
-50 40 -91 72 l-74 59 -34 -40 c-19 -21 -53 -62 -75 -91 l-40 -53 42 -57 c24
-32 59 -75 78 -95 l35 -37 -52 -65 c-29 -36 -56 -66 -61 -66 -15 0 -110 113
-165 195 -161 242 -245 529 -232 787 3 59 9 112 12 118 8 13 -33 43 414 -310z
m-5895 265 c182 -32 333 -162 397 -340 31 -87 32 -235 2 -331 -45 -143 -156
-263 -302 -326 -72 -31 -82 -33 -196 -32 -101 0 -130 4 -180 24 -272 106 -407
387 -315 659 56 168 208 308 370 340 30 6 64 13 75 15 38 7 70 5 149 -9z
m1216 -394 c0 -17 -54 -54 -59 -40 -2 6 7 20 20 30 27 21 39 24 39 10z m-30
-81 c0 -5 -5 -10 -11 -10 -5 0 -7 5 -4 10 3 6 8 10 11 10 2 0 4 -4 4 -10z
m-67 -67 c-6 -16 -5 -16 10 -4 9 7 17 10 17 6 0 -12 -43 -85 -50 -85 -6 0 -2
64 5 88 3 6 9 12 14 12 6 0 7 -8 4 -17z m1022 -12 c22 -10 62 -41 89 -69 43
-44 47 -53 41 -81 -6 -30 -97 -140 -228 -279 -59 -62 -59 -64 -55 -111 l5 -49
-36 10 c-93 26 -263 92 -268 105 -3 7 -2 43 2 78 l7 65 68 45 c86 55 216 178
266 250 20 30 44 55 53 55 9 0 34 -9 56 -19z m-975 -66 c-7 -8 -17 -15 -23
-15 -5 0 -2 9 8 20 21 23 35 19 15 -5z m-87 -43 c-3 -12 -9 -22 -14 -22 -12 0
-11 7 3 30 15 24 19 21 11 -8z m3788 -267 c57 -90 109 -165 115 -165 6 0 37
17 70 38 32 21 64 41 71 45 8 5 29 -17 60 -64 l47 -71 -24 -18 c-14 -11 -46
-31 -72 -47 -26 -15 -49 -32 -51 -38 -2 -5 40 -79 94 -163 55 -84 99 -158 99
-165 0 -13 -130 -98 -140 -92 -3 2 -50 73 -105 159 -55 86 -104 156 -108 156
-20 0 -226 -136 -227 -149 0 -8 43 -81 95 -162 52 -80 95 -152 95 -160 0 -18
-130 -103 -140 -92 -16 16 -520 805 -520 813 0 9 124 90 139 90 5 0 56 -74
113 -165 56 -90 108 -164 115 -165 10 0 201 118 227 141 5 4 -39 82 -98 173
-58 92 -106 170 -106 175 0 10 119 90 136 90 6 1 57 -73 115 -164z m-3770 -6
c87 -50 161 -94 164 -99 8 -12 -54 -120 -68 -120 -7 0 -47 20 -91 45 -43 25
-83 45 -90 45 -10 0 -56 -75 -56 -92 0 -4 20 -26 43 -48 24 -22 59 -70 78
-107 31 -61 34 -75 34 -152 0 -72 -4 -95 -26 -142 -74 -157 -216 -224 -396
-185 -70 14 -243 87 -243 102 0 7 27 55 273 484 196 341 207 360 214 360 2 0
76 -41 164 -91z m710 -335 c38 -8 69 -20 69 -25 0 -5 -11 -60 -24 -122 -14
-62 -37 -170 -51 -242 -15 -71 -36 -167 -46 -213 -11 -46 -19 -97 -19 -114 0
-45 29 -86 78 -110 38 -18 49 -19 82 -9 86 26 81 13 175 470 37 175 64 285 72
288 7 3 47 -3 89 -12 l76 -17 -5 -36 c-3 -21 -36 -178 -72 -351 -40 -188 -64
-324 -60 -339 9 -38 66 -89 108 -97 46 -9 105 18 128 60 16 27 36 117 129 563
15 73 30 136 34 139 6 6 154 -22 164 -31 2 -3 -10 -76 -27 -163 -17 -87 -42
-219 -56 -293 -14 -74 -29 -154 -34 -176 -7 -38 -5 -46 30 -98 48 -71 72 -147
63 -202 -9 -65 -11 -66 -96 -42 l-76 21 -4 54 c-7 77 -14 80 -95 47 -131 -53
-256 -30 -349 65 l-41 41 -36 -15 c-114 -48 -208 -40 -306 26 -65 43 -122 119
-142 186 -14 49 -10 74 46 333 19 91 47 225 61 298 30 150 20 142 135 116z
m1997 -51 c5 -21 24 -101 42 -178 17 -77 40 -176 51 -220 61 -259 109 -478
109 -494 0 -15 -14 -22 -70 -36 -38 -9 -74 -15 -81 -13 -6 2 -26 62 -43 133
l-31 128 -39 -62 c-59 -96 -129 -175 -198 -224 -80 -56 -168 -101 -179 -90 -4
4 -24 76 -43 158 -101 433 -176 766 -176 778 0 10 23 20 71 31 39 9 77 16 83
16 12 0 42 -119 139 -549 18 -80 38 -146 44 -148 16 -6 104 115 142 192 69
140 76 247 31 446 -16 73 -28 134 -27 136 6 5 122 31 144 32 18 1 24 -7 31
-36z"/>
<path d="M7031 7229 c-24 -5 -75 -18 -114 -31 l-70 -22 59 -54 58 -55 73 79
c40 43 73 82 73 87 0 9 -20 8 -79 -4z"/>
<path d="M7775 6416 c-47 -21 -82 -62 -94 -113 -14 -53 -6 -123 14 -123 11 0
278 149 292 164 11 10 -31 48 -72 67 -47 22 -98 23 -140 5z"/>
<path d="M1035 6381 c-22 -10 -50 -30 -63 -44 l-23 -25 152 -86 c83 -48 154
-84 157 -81 3 3 8 31 10 63 5 77 -26 136 -88 169 -52 28 -92 29 -145 4z"/>
<path d="M7341 2388 c15 -69 60 -198 69 -198 8 0 90 104 90 114 0 8 -151 126
-160 126 -4 0 -4 -19 1 -42z"/>
<path d="M1464 2566 c-244 -79 -320 -407 -134 -580 56 -52 105 -79 178 -96
138 -32 300 46 372 181 29 55 35 76 38 151 4 80 2 92 -26 151 -60 130 -165
200 -307 204 -47 2 -97 -3 -121 -11z"/>
<path d="M2443 1273 c-45 -80 -80 -150 -77 -155 3 -4 29 -8 58 -8 105 0 185
73 186 168 0 58 -44 143 -74 142 -6 -1 -48 -67 -93 -147z"/>
<path d="M1 3907 c-2 -95 58 -412 123 -647 444 -1604 1753 -2846 3377 -3204
170 -38 278 -56 329 -55 29 1 -12 11 -116 29 -633 113 -1223 350 -1749 704
-840 565 -1474 1411 -1779 2376 -76 240 -126 464 -174 785 l-10 60 -1 -48z"/>
</g>
</svg>
