<?xml version="1.0" standalone="no"?>
<!DOCTYPE svg PUBLIC "-//W3C//DTD SVG 20010904//EN"
 "http://www.w3.org/TR/2001/REC-SVG-20010904/DTD/svg10.dtd">
<svg version="1.0" xmlns="http://www.w3.org/2000/svg"
 width="700.000000pt" height="700.000000pt" viewBox="0 0 700.000000 700.000000"
 preserveAspectRatio="xMidYMid meet">
<metadata>
Created by potrace 1.14, written by Peter Selinger 2001-2017
</metadata>
<g transform="translate(0.000000,700.000000) scale(0.100000,-0.100000)"
fill="#000000" stroke="none">
<path d="M2561 6394 c-64 -29 -103 -92 -103 -163 0 -60 16 -90 489 -931 11
-19 35 -62 53 -95 18 -33 36 -64 40 -70 4 -5 23 -39 42 -75 20 -36 87 -158
150 -270 63 -113 130 -231 147 -264 18 -32 46 -81 62 -108 16 -27 29 -51 29
-53 0 -2 33 -61 73 -132 41 -70 97 -171 126 -224 54 -102 86 -141 136 -167 34
-17 -54 -16 1540 -28 1339 -10 1205 -12 1258 19 60 36 98 107 91 175 -5 51 -9
58 -346 652 -102 179 -198 350 -215 380 -17 30 -54 96 -83 145 -29 50 -62 108
-74 130 -13 22 -70 123 -128 225 -57 102 -116 205 -130 230 -23 42 -124 219
-150 265 -113 197 -148 259 -148 263 0 14 -67 85 -94 100 -29 16 -124 17
-1374 18 l-1342 1 -49 -23z"/>
<path d="M1845 5960 c-43 -10 -88 -35 -105 -59 -17 -24 -29 -44 -195 -321 -66
-110 -128 -213 -137 -228 -9 -15 -23 -38 -31 -52 -7 -14 -68 -115 -134 -225
-662 -1105 -854 -1430 -861 -1462 -17 -74 -22 -62 291 -623 231 -415 567
-1018 590 -1060 17 -30 72 -129 122 -220 51 -91 105 -187 120 -215 199 -359
184 -335 235 -364 77 -43 184 -24 235 43 13 17 42 63 66 101 23 39 105 174
182 300 171 281 324 533 340 560 7 11 26 42 43 70 17 27 98 160 179 295 228
377 416 687 471 775 91 146 100 203 45 299 -15 28 -47 87 -71 131 -23 44 -53
98 -65 120 -63 112 -237 431 -292 535 -25 47 -49 90 -53 95 -4 6 -26 46 -50
90 -49 91 -49 92 -237 435 -77 140 -159 291 -183 335 -24 44 -60 111 -82 148
-21 38 -38 70 -38 72 0 2 -15 30 -34 62 -30 53 -90 163 -137 252 -46 87 -131
131 -214 111z"/>
<path d="M3941 3268 c-93 -16 -101 -26 -286 -353 -12 -22 -156 -274 -320 -560
-164 -286 -319 -556 -344 -600 -25 -44 -51 -89 -58 -100 -7 -11 -15 -27 -19
-35 -4 -8 -17 -31 -29 -50 -12 -19 -35 -60 -52 -90 -16 -30 -104 -183 -194
-340 -163 -283 -164 -285 -164 -347 0 -52 4 -67 30 -104 17 -23 48 -51 70 -63
39 -20 47 -20 1075 -17 1616 5 1610 5 1645 24 53 29 64 42 121 143 111 195
468 831 509 904 23 41 83 149 134 240 51 91 122 217 158 280 35 63 68 122 73
130 5 8 24 42 43 75 18 33 77 139 132 235 223 396 215 381 215 432 0 58 -13
95 -48 131 -62 66 14 61 -1082 65 -547 1 -1124 3 -1282 5 -158 1 -305 -1 -327
-5z"/>
</g>
</svg>
