<?xml version="1.0" standalone="no"?>
<!DOCTYPE svg PUBLIC "-//W3C//DTD SVG 20010904//EN"
 "http://www.w3.org/TR/2001/REC-SVG-20010904/DTD/svg10.dtd">
<svg version="1.0" xmlns="http://www.w3.org/2000/svg"
 width="512.000000pt" height="512.000000pt" viewBox="0 0 512.000000 512.000000"
 preserveAspectRatio="xMidYMid meet">
<metadata>
Created by potrace 1.11, written by Peter Selinger 2001-2013
</metadata>
<g transform="translate(0.000000,512.000000) scale(0.100000,-0.100000)"
fill="#000000" stroke="none">
<path d="M790 5105 c-257 -52 -480 -203 -630 -426 -58 -87 -102 -187 -137
-309 -17 -62 -18 -147 -18 -1815 l0 -1750 28 -90 c109 -348 352 -585 703 -687
l79 -23 1745 0 1745 0 79 23 c43 12 110 36 149 53 229 97 442 322 526 555 65
180 62 64 59 1959 l-3 1720 -28 90 c-110 351 -348 582 -715 693 -53 16 -178
17 -1787 19 -1402 1 -1742 -1 -1795 -12z m1795 -732 c7 -139 7 -153 -9 -159
-36 -14 -43 14 -35 151 3 72 10 164 15 205 l8 75 7 -60 c4 -33 10 -129 14
-212z m-282 -55 c39 -68 64 -124 61 -133 -10 -24 -42 -17 -58 13 -14 28 -76
219 -76 236 0 14 1 12 73 -116z m545 -15 c-36 -106 -47 -129 -64 -131 -42 -6
-35 27 32 149 37 66 69 118 71 115 2 -2 -15 -62 -39 -133z m-769 -129 c68 -66
93 -95 88 -107 -13 -35 -44 -16 -118 71 -82 96 -157 186 -179 217 -22 30 102
-77 209 -181z m1141 144 c-135 -171 -226 -269 -245 -266 -43 6 -28 38 52 112
92 86 227 205 231 206 2 0 -15 -24 -38 -52z m-503 -328 c89 -45 142 -122 163
-241 34 -187 -63 -424 -261 -631 -57 -60 -55 -54 14 52 60 92 118 212 147 305
27 87 38 245 20 301 -47 150 -210 213 -356 138 -112 -57 -164 -167 -167 -354
l-1 -105 -13 55 c-21 87 -13 263 15 325 54 119 161 183 308 184 60 1 80 -4
131 -29z m-779 -63 c115 -40 137 -57 110 -84 -18 -17 -31 -12 -188 81 -106 63
-93 64 78 3z m1397 44 c-30 -28 -246 -143 -260 -138 -17 7 -20 43 -4 52 14 9
251 94 264 94 5 1 5 -2 0 -8z m-1328 -327 c3 -8 -1 -22 -8 -29 -15 -15 -118
-10 -344 17 l-110 13 60 6 c33 3 136 6 228 7 144 2 168 0 174 -14z m1503 7
l65 -6 -110 -13 c-162 -19 -326 -31 -342 -25 -14 5 -18 35 -6 46 8 9 305 7
393 -2z m-126 -375 c103 -20 178 -59 237 -124 147 -161 107 -423 -96 -627 -95
-96 -197 -166 -401 -274 -528 -281 -712 -411 -1037 -732 -97 -97 -175 -166
-171 -155 3 12 22 50 41 86 120 222 399 476 770 701 449 272 578 383 667 569
41 87 48 198 17 282 -29 74 -81 141 -138 174 -66 39 -174 45 -275 14 -94 -28
-243 -106 -337 -176 -86 -64 -67 -32 32 54 81 70 190 134 295 172 140 51 260
62 396 36z m-1409 -22 c128 -32 356 -164 406 -236 l24 -33 -45 34 c-314 234
-567 253 -715 54 -51 -70 -75 -156 -75 -269 0 -238 116 -406 437 -636 62 -45
119 -88 125 -96 19 -23 -205 96 -309 164 -124 81 -297 257 -345 349 -57 109
-71 171 -66 289 3 91 7 110 36 168 57 117 172 207 291 228 57 11 157 4 236
-16z m1410 -1265 c217 -66 485 -190 630 -290 85 -58 201 -175 238 -239 91
-156 65 -344 -66 -474 -62 -63 -147 -109 -256 -138 -102 -29 -378 -31 -521 -4
-209 38 -389 95 -555 176 -104 50 -227 126 -170 105 130 -48 350 -112 470
-137 132 -28 170 -32 320 -32 132 -1 184 3 235 17 163 44 287 136 343 255 26
57 29 71 25 136 -7 101 -46 173 -152 273 -124 119 -306 231 -531 328 -60 26
-112 50 -115 53 -5 5 -3 4 105 -29z m-1700 -160 c-374 -209 -566 -407 -568
-583 -1 -76 26 -136 86 -196 70 -71 156 -106 292 -120 342 -35 881 154 1385
487 121 81 123 81 71 32 -536 -503 -1521 -801 -1945 -587 -109 54 -181 156
-192 269 -24 245 294 518 826 710 58 21 112 38 120 38 8 0 -25 -22 -75 -50z"/>
</g>
</svg>
