<?xml version="1.0" standalone="no"?>
<!DOCTYPE svg PUBLIC "-//W3C//DTD SVG 20010904//EN"
 "http://www.w3.org/TR/2001/REC-SVG-20010904/DTD/svg10.dtd">
<svg version="1.0" xmlns="http://www.w3.org/2000/svg"
 width="512.000000pt" height="512.000000pt" viewBox="0 0 512.000000 512.000000"
 preserveAspectRatio="xMidYMid meet">
<metadata>
Created by potrace 1.14, written by Peter Selinger 2001-2017
</metadata>
<g transform="translate(0.000000,512.000000) scale(0.100000,-0.100000)"
fill="#000000" stroke="none">
<path d="M1899 4688 c-45 -9 -90 -57 -99 -107 -9 -52 -4 -64 172 -376 74 -132
150 -267 168 -300 18 -33 52 -94 75 -135 23 -41 53 -95 67 -120 14 -25 35 -63
48 -85 12 -22 68 -121 123 -220 296 -531 288 -518 337 -537 15 -6 266 -12 620
-14 327 -3 771 -6 987 -8 432 -3 432 -3 476 58 15 22 22 44 21 77 -1 42 -20
80 -160 326 -87 153 -166 292 -176 309 -9 18 -112 200 -229 405 -117 206 -229
403 -249 439 -20 36 -49 88 -65 115 -16 28 -34 59 -39 70 -27 50 -51 77 -80
92 -28 15 -124 17 -998 17 -532 1 -981 -2 -999 -6z"/>
<path d="M1353 4360 c-18 -4 -43 -14 -55 -22 -18 -12 -500 -797 -517 -843 -2
-5 -7 -12 -10 -15 -4 -3 -12 -16 -19 -30 -13 -26 -27 -48 -53 -90 -9 -14 -107
-176 -218 -362 -127 -213 -202 -349 -205 -371 -5 -43 -2 -50 237 -477 13 -25
91 -164 172 -310 140 -253 167 -300 212 -380 11 -19 35 -62 53 -95 18 -33 54
-98 80 -145 48 -84 80 -142 161 -290 53 -97 77 -115 151 -115 46 0 61 4 83 25
21 20 180 271 296 468 9 15 80 133 159 262 266 438 453 745 502 827 74 123 74
135 -7 290 -37 70 -71 133 -75 138 -4 6 -27 46 -50 90 -24 44 -133 244 -243
445 -110 201 -215 394 -235 430 -19 36 -42 79 -52 95 -10 17 -33 59 -52 95
-20 36 -47 85 -60 110 -14 25 -46 83 -71 130 -26 48 -57 95 -69 107 -31 28
-77 41 -115 33z"/>
<path d="M2867 2387 c-19 -5 -46 -20 -59 -35 -14 -15 -107 -171 -208 -347
-100 -176 -190 -333 -200 -350 -9 -16 -63 -111 -120 -210 -57 -99 -112 -196
-123 -215 -11 -19 -56 -98 -100 -175 -44 -77 -88 -153 -96 -168 -9 -16 -20
-36 -26 -46 -102 -172 -125 -221 -125 -264 0 -34 6 -53 26 -77 52 -61 -9 -58
1042 -54 859 4 967 6 995 20 30 15 76 61 77 76 0 3 33 64 73 135 40 70 90 159
110 196 21 37 47 84 59 105 12 20 38 66 58 102 20 36 70 124 110 195 40 72
101 180 135 240 34 61 74 133 90 160 15 28 68 122 118 210 49 88 104 185 121
215 59 102 68 128 61 171 -9 51 -47 96 -93 109 -45 12 -1873 19 -1925 7z"/>
</g>
</svg>
