<svg width="20" height="20" viewBox="0 0 20 20" fill="none" xmlns="http://www.w3.org/2000/svg">
<path fill-rule="evenodd" clip-rule="evenodd" d="M2.88849 0H17.1117C18.7051 0 20.0006 1.38444 20.0006 3.08554V16.9144C20.0006 18.6155 18.7051 19.9999 17.1117 19.9999H15.5562C14.9418 19.9999 14.4451 19.5032 14.4451 18.8888C14.4451 18.2743 14.9418 17.7777 15.5562 17.7777H17.1117C17.4729 17.7777 17.7784 17.3821 17.7784 16.9144V3.08554C17.7784 2.61776 17.4729 2.22221 17.1117 2.22221H2.88849C2.52739 2.22221 2.22294 2.61776 2.22294 3.08554V4.44442C2.22294 5.05886 1.72517 5.55552 1.11184 5.55552C0.497397 5.55552 0.000732901 5.05886 0.000732901 4.44442V3.08554C0.000732901 1.38444 1.29628 0 2.88849 0ZM0.0107044 13.5222C-0.0737395 12.9144 0.351814 12.3533 0.959588 12.2699C2.53736 12.0544 4.07735 12.571 5.19734 13.6899C6.68289 15.1777 7.08622 17.4555 6.19845 19.3588C6.00956 19.7621 5.60956 19.9999 5.19068 19.9999C5.0329 19.9999 4.8729 19.9666 4.72179 19.8955C4.16624 19.6366 3.92513 18.9755 4.18401 18.4188C4.67846 17.3599 4.45512 16.0899 3.62624 15.2621C3.0018 14.6388 2.1418 14.3533 1.26292 14.4699C0.648479 14.5577 0.0940373 14.1299 0.0107044 13.5222ZM0.958476 7.86341C0.350701 7.94785 -0.0737408 8.50896 0.0107032 9.11673C0.0951471 9.7234 0.654033 10.1489 1.26403 10.0634C3.36513 9.77673 5.42845 10.4634 6.92733 11.9612C8.65621 13.6912 9.30621 16.2267 8.62177 18.5789C8.45066 19.1678 8.78954 19.7845 9.37843 19.9556C9.48287 19.9856 9.58732 20 9.68843 20C10.1706 20 10.614 19.6856 10.7551 19.1989C11.6662 16.07 10.8006 12.6945 8.49843 10.3901C6.504 8.39563 3.76068 7.47341 0.958476 7.86341ZM0.000369422 17.7777C0.000369422 17.1632 0.497033 16.6666 1.11147 16.6666C1.72592 16.6666 2.22258 17.1632 2.22258 17.7777C2.22258 18.3921 1.72592 18.8888 1.11147 18.8888C0.497033 18.8888 0.000369422 18.3921 0.000369422 17.7777Z" fill="#FF7F5C" fill-opacity="0.6"/>
</svg>
