<svg width="20" height="21" viewBox="0 0 20 21" fill="none" xmlns="http://www.w3.org/2000/svg">
<path fill-rule="evenodd" clip-rule="evenodd" d="M6 1C6 0.447715 5.55228 0 5 0C4.44772 0 4 0.447715 4 1V2H2C0.895431 2 0 2.89543 0 4V19C0 20.1046 0.895432 21 2 21H18C19.1046 21 20 20.1046 20 19V4C20 2.89543 19.1046 2 18 2H16V1C16 0.447715 15.5523 0 15 0C14.4477 0 14 0.447715 14 1V2H6V1ZM15 5C14.4477 5 14 4.55229 14 4H6C6 4.55229 5.55228 5 5 5C4.44772 5 4 4.55229 4 4H2V7H18V4H16C16 4.55229 15.5523 5 15 5ZM18 9H2V19H18V9ZM6 12C6 12.5523 5.55228 13 5 13C4.44772 13 4 12.5523 4 12C4 11.4477 4.44772 11 5 11C5.55228 11 6 11.4477 6 12ZM10 13C10.5523 13 11 12.5523 11 12C11 11.4477 10.5523 11 10 11C9.44771 11 9 11.4477 9 12C9 12.5523 9.44771 13 10 13ZM16 12C16 12.5523 15.5523 13 15 13C14.4477 13 14 12.5523 14 12C14 11.4477 14.4477 11 15 11C15.5523 11 16 11.4477 16 12ZM5 17C5.55228 17 6 16.5523 6 16C6 15.4477 5.55228 15 5 15C4.44772 15 4 15.4477 4 16C4 16.5523 4.44772 17 5 17ZM11 16C11 16.5523 10.5523 17 10 17C9.44771 17 9 16.5523 9 16C9 15.4477 9.44771 15 10 15C10.5523 15 11 15.4477 11 16ZM15 17C15.5523 17 16 16.5523 16 16C16 15.4477 15.5523 15 15 15C14.4477 15 14 15.4477 14 16C14 16.5523 14.4477 17 15 17Z" fill="#FF7F5C" fill-opacity="0.6"/>
</svg>
