<svg width="23" height="23" viewBox="0 0 23 23" fill="none" xmlns="http://www.w3.org/2000/svg">
<path d="M19.8041 12.4H18.8041V12.8301L19.1163 13.126L19.8041 12.4ZM19.8541 11.9L20.844 12.0414V12.0414L19.8541 11.9ZM21.7041 14.2L22.5041 13.6L22.4533 13.5323L22.3918 13.474L21.7041 14.2ZM21.8041 15.4L22.6678 15.9039L22.6841 15.876L22.6985 15.8472L21.8041 15.4ZM20.4041 17.8L19.5403 17.2961L19.524 17.324L19.5096 17.3528L20.4041 17.8ZM19.3041 18.3L19.5466 17.3299L19.5274 17.3251L19.508 17.321L19.3041 18.3ZM16.9041 17.8L17.108 16.821L16.6979 16.7356L16.3494 16.9679L16.9041 17.8ZM15.1041 18.8L14.6568 17.9056L14.2931 18.0874L14.1596 18.4715L15.1041 18.8ZM14.3041 21.1L15.1985 21.5472L15.2273 21.4895L15.2486 21.4285L14.3041 21.1ZM9.60405 21.1L10.5742 20.8575L10.5633 20.8139L10.5485 20.7715L9.60405 21.1ZM8.80405 18.8L9.74855 18.4715L9.57799 17.9811L9.07878 17.8385L8.80405 18.8ZM7.00405 17.8L7.62875 17.0191L7.26107 16.725L6.8001 16.821L7.00405 17.8ZM4.60405 18.3L4.4001 17.321L4.38072 17.3251L4.36152 17.3299L4.60405 18.3ZM3.50405 17.8L4.39848 17.3528L4.38407 17.324L4.36783 17.2961L3.50405 17.8ZM2.10405 15.4L1.20963 15.8472L1.22404 15.876L1.24027 15.9039L2.10405 15.4ZM2.30405 14.2L1.55664 13.5356L1.52901 13.5667L1.50405 13.6L2.30405 14.2ZM3.90405 12.4L4.65146 13.0644L5.03556 12.6323L4.85274 12.0838L3.90405 12.4ZM3.85405 10.9L2.8641 10.7586H2.8641L3.85405 10.9ZM3.90405 10.4H4.90405V10.0198L4.65146 9.73564L3.90405 10.4ZM2.30405 8.6L1.50405 9.2L1.52901 9.23328L1.55664 9.26436L2.30405 8.6ZM2.10405 7.4L1.24027 6.89613L1.22404 6.92396L1.20963 6.95279L2.10405 7.4ZM3.50405 5L4.36783 5.50387L4.38407 5.47604L4.39848 5.44721L3.50405 5ZM4.60405 4.5L4.36152 5.47014L4.38072 5.47494L4.4001 5.47898L4.60405 4.5ZM7.00405 5L6.8001 5.97898L7.26107 6.07502L7.62875 5.78087L7.00405 5ZM8.70405 4L9.15127 4.89443L9.51496 4.71258L9.64855 4.32852L8.70405 4ZM9.50405 1.7L10.4485 2.02852L10.4633 1.9861L10.4742 1.94254L9.50405 1.7ZM14.1041 1.7L13.1339 1.94254L13.1448 1.9861L13.1596 2.02852L14.1041 1.7ZM14.9041 4L13.9596 4.32852L14.1301 4.81889L14.6293 4.96152L14.9041 4ZM16.7041 5L16.0794 5.78087L16.4512 6.07833L16.9165 5.97718L16.7041 5ZM19.0041 4.5L19.2165 5.47718L19.2316 5.47389L19.2466 5.47014L19.0041 4.5ZM20.1041 5L19.2096 5.44721L19.224 5.47604L19.2403 5.50387L20.1041 5ZM21.5041 7.4L22.3985 6.95279L22.3841 6.92396L22.3678 6.89613L21.5041 7.4ZM21.4041 8.6L20.6969 7.89289L20.6762 7.91367L20.6566 7.93564L21.4041 8.6ZM19.8041 10.4L19.0566 9.73564L18.6725 10.1677L18.8554 10.7162L19.8041 10.4ZM20.8041 12.4C20.8041 12.3356 20.8161 12.2368 20.844 12.0414L18.8641 11.7586C18.842 11.9132 18.8041 12.1644 18.8041 12.4H20.8041ZM22.3918 13.474L20.4918 11.674L19.1163 13.126L21.0163 14.926L22.3918 13.474ZM22.6985 15.8472C22.8581 15.528 22.9655 15.1522 22.9396 14.7376C22.9133 14.3168 22.7543 13.9337 22.5041 13.6L20.9041 14.8C20.9309 14.8358 20.9403 14.8572 20.9429 14.8638C20.9451 14.8695 20.9438 14.868 20.9435 14.8624C20.9426 14.8478 20.95 14.872 20.9096 14.9528L22.6985 15.8472ZM21.2678 18.3039L22.6678 15.9039L20.9403 14.8961L19.5403 17.2961L21.2678 18.3039ZM19.0615 19.2701C19.8849 19.476 20.8748 19.0946 21.2985 18.2472L19.5096 17.3528C19.5196 17.3329 19.5299 17.3223 19.5335 17.3191C19.5366 17.3163 19.5351 17.3183 19.5282 17.3213C19.5212 17.3244 19.5155 17.3254 19.5142 17.3256C19.5126 17.3257 19.5238 17.3242 19.5466 17.3299L19.0615 19.2701ZM16.7001 18.779L19.1001 19.279L19.508 17.321L17.108 16.821L16.7001 18.779ZM15.5513 19.6944C16.1449 19.3976 16.7993 19.0717 17.4588 18.632L16.3494 16.9679C15.8088 17.3283 15.2632 17.6024 14.6568 17.9056L15.5513 19.6944ZM15.2486 21.4285L16.0486 19.1285L14.1596 18.4715L13.3596 20.7715L15.2486 21.4285ZM13.3041 22.8C14.1816 22.8 14.8783 22.1876 15.1985 21.5472L13.4096 20.6528C13.3816 20.7088 13.3384 20.7573 13.2978 20.7863C13.2556 20.8164 13.2545 20.8 13.3041 20.8V22.8ZM10.6041 22.8H13.3041V20.8H10.6041V22.8ZM8.63391 21.3425C8.86222 22.2558 9.7193 22.8 10.6041 22.8V20.8C10.5545 20.8 10.5343 20.7856 10.5353 20.7863C10.5354 20.7864 10.5613 20.8061 10.5742 20.8575L8.63391 21.3425ZM7.85956 19.1285L8.65956 21.4285L10.5485 20.7715L9.74855 18.4715L7.85956 19.1285ZM6.37936 18.5809C6.92114 19.0143 7.64312 19.5083 8.52933 19.7615L9.07878 17.8385C8.56499 17.6917 8.08697 17.3857 7.62875 17.0191L6.37936 18.5809ZM4.80801 19.279L7.20801 18.779L6.8001 16.821L4.4001 17.321L4.80801 19.279ZM2.60963 18.2472C3.03334 19.0946 4.02321 19.476 4.84659 19.2701L4.36152 17.3299C4.38428 17.3242 4.39548 17.3257 4.39395 17.3256C4.39262 17.3254 4.3869 17.3244 4.37987 17.3213C4.37296 17.3183 4.37148 17.3163 4.37459 17.3191C4.37823 17.3223 4.38852 17.3329 4.39848 17.3528L2.60963 18.2472ZM1.24027 15.9039L2.64027 18.3039L4.36783 17.2961L2.96783 14.8961L1.24027 15.9039ZM1.50405 13.6C1.07332 14.1743 0.778607 14.9852 1.20963 15.8472L2.99848 14.9528C2.99396 14.9437 2.99711 14.9473 2.999 14.9607C2.99983 14.9667 3.0001 14.9724 2.99997 14.9773C2.99984 14.9822 2.99935 14.9847 2.99943 14.9843C3.00014 14.9805 3.01363 14.9206 3.10405 14.8L1.50405 13.6ZM3.15664 11.7356L1.55664 13.5356L3.05146 14.8644L4.65146 13.0644L3.15664 11.7356ZM2.80405 11.4C2.80405 11.6533 2.79372 12.2313 2.95537 12.7162L4.85274 12.0838C4.81438 11.9687 4.80405 11.7467 4.80405 11.4H2.80405ZM2.8641 10.7586C2.84201 10.9132 2.80405 11.1644 2.80405 11.4H4.80405C4.80405 11.3356 4.81609 11.2368 4.844 11.0414L2.8641 10.7586ZM2.90405 10.4C2.90405 10.4644 2.89201 10.5632 2.8641 10.7586L4.844 11.0414C4.86609 10.8868 4.90405 10.6356 4.90405 10.4H2.90405ZM1.55664 9.26436L3.15664 11.0644L4.65146 9.73564L3.05146 7.93564L1.55664 9.26436ZM1.20963 6.95279C0.778607 7.81482 1.07332 8.62568 1.50405 9.2L3.10405 8C3.01363 7.87943 3.00014 7.81952 2.99943 7.81571C2.99935 7.81534 2.99984 7.81783 2.99997 7.82267C3.0001 7.82758 2.99983 7.83332 2.999 7.83925C2.99711 7.85269 2.99396 7.85626 2.99848 7.84721L1.20963 6.95279ZM2.64027 4.49613L1.24027 6.89613L2.96783 7.90387L4.36783 5.50387L2.64027 4.49613ZM4.84659 3.52986C4.02321 3.32401 3.03334 3.70535 2.60963 4.55279L4.39848 5.44721C4.38852 5.46712 4.37823 5.47765 4.37459 5.48094C4.37148 5.48375 4.37296 5.48168 4.37987 5.47866C4.3869 5.47558 4.39262 5.47457 4.39395 5.47443C4.39548 5.47427 4.38428 5.47583 4.36152 5.47014L4.84659 3.52986ZM7.20801 4.02102L4.80801 3.52102L4.4001 5.47898L6.8001 5.97898L7.20801 4.02102ZM8.25684 3.10557C7.67642 3.39578 6.97684 3.74115 6.37936 4.21913L7.62875 5.78087C8.03127 5.45885 8.53169 5.20422 9.15127 4.89443L8.25684 3.10557ZM8.55956 1.37148L7.75956 3.67148L9.64855 4.32852L10.4485 2.02852L8.55956 1.37148ZM10.5041 0C9.6193 0 8.76222 0.544221 8.53391 1.45746L10.4742 1.94254C10.4613 1.99394 10.4355 2.01362 10.4353 2.01373C10.4344 2.01441 10.4545 2 10.5041 2V0ZM13.2041 0H10.5041V2H13.2041V0ZM15.0742 1.45746C14.86 0.600514 14.0507 0 13.2041 0V2C13.1794 2 13.1648 1.99551 13.1601 1.99382C13.1555 1.99216 13.1553 1.99143 13.1568 1.99262C13.1584 1.99379 13.1565 1.99293 13.1526 1.98711C13.1483 1.98095 13.1399 1.96643 13.1339 1.94254L15.0742 1.45746ZM15.8485 3.67148L15.0486 1.37148L13.1596 2.02852L13.9596 4.32852L15.8485 3.67148ZM17.3287 4.21913C16.787 3.78571 16.065 3.29168 15.1788 3.03848L14.6293 4.96152C15.1431 5.10832 15.6211 5.41429 16.0794 5.78087L17.3287 4.21913ZM18.7916 3.52282L16.4916 4.02282L16.9165 5.97718L19.2165 5.47718L18.7916 3.52282ZM20.9985 4.55279C20.5748 3.70535 19.5849 3.32401 18.7615 3.52986L19.2466 5.47014C19.2238 5.47583 19.2126 5.47427 19.2142 5.47443C19.2155 5.47457 19.2212 5.47558 19.2282 5.47866C19.2351 5.48168 19.2366 5.48375 19.2335 5.48094C19.2299 5.47765 19.2196 5.46712 19.2096 5.44721L20.9985 4.55279ZM22.3678 6.89613L20.9678 4.49613L19.2403 5.50387L20.6403 7.90387L22.3678 6.89613ZM22.1112 9.30711C22.8256 8.59267 22.7107 7.57729 22.3985 6.95279L20.6096 7.84722C20.6228 7.87347 20.6323 7.90091 20.6378 7.92649C20.6434 7.95226 20.6438 7.97029 20.6433 7.97878C20.6428 7.98715 20.6419 7.98049 20.6491 7.96296C20.6569 7.94393 20.672 7.91781 20.6969 7.89289L22.1112 9.30711ZM20.5515 11.0644L22.1515 9.26436L20.6566 7.93564L19.0566 9.73564L20.5515 11.0644ZM20.9041 11.4C20.9041 11.1467 20.9144 10.5687 20.7527 10.0838L18.8554 10.7162C18.8937 10.8313 18.9041 11.0533 18.9041 11.4H20.9041ZM20.844 12.0414C20.8661 11.8868 20.9041 11.6356 20.9041 11.4H18.9041C18.9041 11.4644 18.892 11.5632 18.8641 11.7586L20.844 12.0414ZM14 11C14 12.1046 13.1046 13 12 13V15C14.2091 15 16 13.2091 16 11H14ZM12 9C13.1046 9 14 9.89543 14 11H16C16 8.79086 14.2091 7 12 7V9ZM10 11C10 9.89543 10.8954 9 12 9V7C9.79086 7 8 8.79086 8 11H10ZM12 13C10.8954 13 10 12.1046 10 11H8C8 13.2091 9.79086 15 12 15V13Z" fill="#FF7F5C"/>
</svg>
