<?xml version="1.0" standalone="no"?>
<!DOCTYPE svg PUBLIC "-//W3C//DTD SVG 20010904//EN"
 "http://www.w3.org/TR/2001/REC-SVG-20010904/DTD/svg10.dtd">
<svg version="1.0" xmlns="http://www.w3.org/2000/svg"
 width="700.000000pt" height="700.000000pt" viewBox="0 0 700.000000 700.000000"
 preserveAspectRatio="xMidYMid meet">
<metadata>
Created by potrace 1.11, written by Peter Selinger 2001-2013
</metadata>
<g transform="translate(0.000000,700.000000) scale(0.100000,-0.100000)"
fill="#000000" stroke="none">
<path d="M1135 6984 c-493 -77 -920 -440 -1068 -910 -67 -211 -61 14 -65
-2519 -2 -1619 0 -2315 8 -2375 75 -581 496 -1032 1080 -1157 81 -17 202 -18
2410 -18 2208 0 2329 1 2410 18 430 92 767 351 951 732 32 66 70 161 84 210
57 198 55 87 55 2532 0 1538 -3 2276 -11 2330 -71 526 -433 957 -934 1112
-207 64 -74 61 -2565 60 -1884 -1 -2280 -3 -2355 -15z m2389 -774 c8 -91 18
-225 22 -298 7 -142 2 -162 -41 -162 -43 0 -48 20 -41 162 4 73 14 204 22 291
8 86 14 162 14 169 0 6 2 9 4 7 3 -2 11 -79 20 -169z m-284 -473 c0 -33 -56
-50 -78 -24 -21 25 -132 363 -132 401 0 6 47 -73 105 -177 58 -103 105 -193
105 -200z m695 255 c-39 -135 -83 -260 -98 -280 -6 -7 -24 -12 -41 -10 -54 5
-46 34 66 233 56 101 104 183 105 181 2 -1 -13 -57 -32 -124z m-1098 -270
c134 -124 151 -150 121 -180 -30 -30 -59 -7 -210 168 -78 91 -228 279 -228
286 0 9 178 -145 317 -274z m1617 241 c-87 -117 -237 -295 -318 -380 -51 -54
-72 -63 -94 -41 -25 25 -11 54 61 124 103 100 365 333 376 334 2 0 -9 -17 -25
-37z m-788 -480 c251 -84 352 -398 236 -733 -29 -84 -88 -196 -154 -293 -57
-83 -231 -277 -248 -277 -5 0 28 55 73 123 186 278 275 531 265 746 -8 159
-68 259 -187 315 -37 17 -65 21 -141 21 -82 -1 -102 -4 -150 -28 -116 -56
-184 -142 -221 -282 -17 -64 -21 -111 -22 -230 0 -156 -3 -158 -32 -22 -20 90
-19 276 0 352 40 150 148 260 310 311 59 19 212 17 271 -3z m-1088 -85 c168
-58 227 -82 237 -98 11 -19 -3 -57 -24 -63 -20 -5 -152 64 -331 172 -99 60
-86 59 118 -11z m1986 26 c-93 -57 -255 -149 -299 -171 -28 -15 -47 -18 -62
-12 -32 12 -31 54 2 75 26 17 379 143 404 143 8 1 -12 -15 -45 -35z m-1826
-426 c7 -7 12 -22 12 -35 0 -40 -28 -45 -178 -33 -152 12 -395 38 -457 49 -36
7 -31 8 45 15 143 11 178 12 376 14 136 1 193 -1 202 -10z m2137 -7 l50 -7
-55 -7 c-139 -18 -317 -37 -448 -47 -154 -12 -172 -8 -172 34 0 48 6 49 300
41 151 -3 298 -10 325 -14z m-187 -520 c227 -66 352 -201 382 -411 25 -173
-53 -401 -187 -550 -163 -181 -295 -272 -728 -500 -402 -212 -640 -363 -897
-568 -147 -117 -591 -550 -638 -621 -38 -57 -38 -39 0 56 123 306 427 621 916
948 71 47 231 147 356 222 269 161 408 262 539 393 276 275 331 534 166 780
-81 121 -206 179 -355 166 -180 -17 -430 -135 -661 -313 -81 -63 -83 -64 -52
-25 49 62 184 185 260 236 151 101 317 172 471 201 110 21 333 14 428 -14z
m-1963 -25 c214 -63 507 -248 565 -356 l13 -25 -35 27 c-155 119 -324 215
-453 259 -59 20 -89 24 -195 24 -119 0 -128 -1 -191 -31 -81 -39 -141 -91
-190 -167 -133 -205 -122 -514 27 -754 65 -105 238 -278 389 -388 143 -105
249 -185 290 -220 l30 -25 -36 15 c-53 21 -218 108 -338 179 -203 120 -402
290 -516 441 -174 232 -214 526 -102 754 62 127 208 247 348 286 86 24 281 15
394 -19z m1770 -1682 c323 -91 683 -241 900 -374 236 -144 393 -305 463 -473
19 -47 26 -85 30 -158 8 -175 -35 -285 -158 -410 -118 -119 -256 -183 -465
-215 -136 -22 -434 -14 -597 15 -332 59 -675 175 -894 304 -81 48 -166 114
-129 102 11 -4 76 -27 145 -52 429 -153 850 -226 1125 -194 188 22 320 67 430
146 120 85 202 204 227 328 39 198 -117 424 -435 635 -151 99 -404 229 -617
316 -74 31 -130 55 -125 56 6 0 51 -11 100 -26z m-2005 -168 c0 -3 -42 -26
-92 -51 -372 -188 -682 -429 -796 -617 -78 -130 -93 -264 -42 -373 55 -115
200 -223 351 -260 90 -23 306 -30 425 -16 515 64 1114 325 1744 761 l75 51
-70 -68 c-455 -444 -1166 -796 -1850 -915 -111 -19 -165 -22 -365 -22 -222 0
-241 2 -332 27 -192 51 -323 146 -386 278 -103 215 -23 448 228 664 224 194
592 386 950 495 58 18 116 36 130 40 14 5 26 9 28 9 1 1 2 -1 2 -3z"/>
</g>
</svg>
