<svg xmlns="http://www.w3.org/2000/svg" width="24" height="24" fill="none" style=""><rect id="backgroundrect" width="100%" height="100%" x="0" y="0" fill="none" stroke="none"/>

<g class="currentLayer" style=""><title>Layer 1</title><path fill-rule="evenodd" clip-rule="evenodd" d="M2.18349 10.0834C3.41663 10.5865 4.6972 10.9978 6.01678 11.3085C6.18911 7.76655 7.67799 4.57069 10.0026 2.1995C6.05538 2.99963 2.95191 6.12467 2.18349 10.0834ZM6.06618 13.3698C4.66981 13.0685 3.31196 12.6629 2.00128 12.1617C2.07686 16.9286 5.48781 20.8853 10.0026 21.8005C7.82735 19.5817 6.38388 16.6407 6.06618 13.3698ZM8.1243 13.7338C9.39131 13.9093 10.6852 14 12 14C13.339 14 14.6564 13.906 15.9457 13.7241C15.5329 16.5942 14.1043 19.1366 12.0343 20.9751C9.96662 19.1387 8.539 16.6 8.1243 13.7338ZM16.0645 11.6843C14.7405 11.8921 13.383 12 12 12C10.6408 12 9.30621 11.8958 8.0038 11.695C8.08978 8.24791 9.62894 5.16117 12.0343 3.02487C14.4372 5.15898 15.9757 8.24156 16.0645 11.6843ZM18.0039 13.3546C17.69 16.6228 16.2523 19.5625 14.0834 21.7827C18.5555 20.8349 21.9236 16.8982 21.9987 12.1617C20.71 12.6545 19.3756 13.0549 18.0039 13.3546ZM21.8165 10.0834C20.6045 10.5779 19.3467 10.9836 18.051 11.2924C17.8754 7.76576 16.3946 4.58312 14.0834 2.21734C17.9897 3.04518 21.0537 6.15349 21.8165 10.0834ZM0 12C0 5.37258 5.37258 0 12 0C18.6274 0 24 5.37258 24 12C24 18.6274 18.6274 24 12 24C5.37258 24 0 18.6274 0 12Z" fill="#FFE8E2" id="svg_1" class="selected" fill-opacity="1"/></g></svg>
