<svg width="27" height="26" viewBox="0 0 27 26" fill="none" xmlns="http://www.w3.org/2000/svg">
<path d="M12.9 10.7C13.9 11.1 14.5 12.1 14.5 13.1C14.5 13.6 14.4 14.1 14.2 14.5C14 14.9 13.7 15.3 13.4 15.5C12.2 16.6 10.3 17 8.79999 16.1C7.99999 15.7 7.49999 15.1 7.09999 14.4C6.69999 13.7 6.49999 12.9 6.49999 12.2C6.49999 10.7 7.09999 9.30004 7.99999 8.30004C8.49999 7.80004 9.09999 7.30004 9.69999 7.00004C10.3 6.70004 11 6.50004 11.6 6.30004C12.9 6.00004 14.3 6.00004 15.6 6.40004C16.9 6.80004 18.2 7.60004 19 8.70004C19.8 9.80004 20.3 11.1 20.5 12.4C20.9 15 20 17.7 18.3 19.7C16.6 21.7 14.1 22.9 11.6 23.1C8.99999 23.3 6.39999 22.6 4.39999 21.1C2.29999 19.6 0.899994 17.3 0.299994 14.8C-0.300006 12.5 -5.96046e-06 9.80004 0.999994 7.50004C1.49999 6.30004 2.29999 5.30004 3.09999 4.40004C3.99999 3.50004 4.99999 2.70004 6.09999 2.10004C10.3 -0.499956 15.9 -0.699956 20.3 1.60004C21.4 2.20004 22.4 2.90004 23.3 3.70004C24.2 4.50004 25.1 5.60004 25.6 6.70004C26.7 9.00004 27 11.5 26.8 13.9C26.6 16.3 25.9 18.7 24.7 20.8C23.5 22.9 21.7 24.7 19.4 25.7C19 25.9 18.6 25.7 18.4 25.3C18.3 24.9 18.4 24.5 18.8 24.4C20.7 23.5 22.1 21.8 23.1 20C24.1 18.1 24.6 16 24.8 13.9C24.9 11.8 24.6 9.60004 23.7 7.80004C23.2 6.90004 22.6 6.10004 21.9 5.50004C21.1 4.80004 20.2 4.20004 19.3 3.70004C15.6 1.80004 10.9 2.00004 7.39999 4.20004C6.39999 4.60004 5.59999 5.30004 4.79999 6.00004C4.09999 6.70004 3.59999 7.60004 3.19999 8.50004C2.39999 10.3 2.19999 12.4 2.59999 14.4C3.09999 16.4 4.19999 18.1 5.79999 19.3C7.39999 20.5 9.39999 21 11.4 20.9C13.4 20.7 15.3 19.8 16.5 18.3C17.7 16.8 18.4 14.8 18.1 12.9C18 12 17.6 11.1 17.1 10.3C16.6 9.60004 15.9 9.10004 15 8.90004C14.1 8.60004 13.2 8.60004 12.2 8.80004C11.8 8.80004 11.4 9.00004 11 9.20004C10.6 9.40004 10.3 9.60004 9.99999 10C9.39999 10.6 9.09999 11.5 9.09999 12.3C9.09999 12.7 9.19999 13 9.39999 13.4C9.59999 13.7 9.79999 14 10.1 14.1C10.6 14.4 11.4 14.3 11.9 13.8C12 13.7 12.1 13.6 12.1 13.5C12.1 13.4 12.2 13.3 12.2 13.3C12.2 13.1 12.1 13 12 13C11.4 12.8 11.1 12.1 11.3 11.4C11.5 10.7 12.2 10.4 12.9 10.7C12.8 10.6 12.8 10.6 12.9 10.7Z" fill="#FFB29D"/>
</svg>
