<svg width="27" height="26" viewBox="0 0 27 26" fill="none" xmlns="http://www.w3.org/2000/svg">
<path d="M12.9 10.7C13.9 11.1 14.5 12.1 14.5 13.1C14.5 13.6 14.4 14.1 14.2 14.5C14 14.9 13.7 15.3 13.4 15.5C12.2 16.6 10.3 17 8.79998 16.1C7.99998 15.7 7.49998 15.1 7.09998 14.4C6.69998 13.7 6.49998 12.9 6.49998 12.2C6.49998 10.7 7.09998 9.29998 7.99998 8.29998C8.49998 7.79998 9.09998 7.29998 9.69998 6.99998C10.3 6.69998 11 6.49998 11.6 6.29998C12.9 5.99998 14.3 5.99998 15.6 6.39998C16.9 6.79998 18.2 7.59998 19 8.69998C19.8 9.79998 20.3 11.1 20.5 12.4C20.9 15 20 17.7 18.3 19.7C16.6 21.7 14.1 22.9 11.6 23.1C8.99998 23.3 6.39998 22.6 4.39998 21.1C2.29998 19.6 0.899979 17.3 0.299979 14.8C-0.300021 12.5 -2.12193e-05 9.79998 0.999979 7.49998C1.49998 6.29998 2.29998 5.29998 3.09998 4.39998C3.99998 3.49998 4.99998 2.69998 6.09998 2.09998C10.3 -0.500017 15.9 -0.700017 20.3 1.59998C21.4 2.19998 22.4 2.89998 23.3 3.69998C24.2 4.49998 25.1 5.59998 25.6 6.69998C26.7 8.99998 27 11.5 26.8 13.9C26.6 16.3 25.9 18.7 24.7 20.8C23.5 22.9 21.7 24.7 19.4 25.7C19 25.9 18.6 25.7 18.4 25.3C18.3 24.9 18.4 24.5 18.8 24.4C20.7 23.5 22.1 21.8 23.1 20C24.1 18.1 24.6 16 24.8 13.9C24.9 11.8 24.6 9.59998 23.7 7.79998C23.2 6.89998 22.6 6.09998 21.9 5.49998C21.1 4.79998 20.2 4.19998 19.3 3.69998C15.6 1.79998 10.9 1.99998 7.39998 4.19998C6.39998 4.59998 5.59998 5.29998 4.79998 5.99998C4.09998 6.69998 3.59998 7.59998 3.19998 8.49998C2.39998 10.3 2.19998 12.4 2.59998 14.4C3.09998 16.4 4.19998 18.1 5.79998 19.3C7.39998 20.5 9.39998 21 11.4 20.9C13.4 20.7 15.3 19.8 16.5 18.3C17.7 16.8 18.4 14.8 18.1 12.9C18 12 17.6 11.1 17.1 10.3C16.6 9.59998 15.9 9.09998 15 8.89998C14.1 8.59998 13.2 8.59998 12.2 8.79998C11.8 8.79998 11.4 8.99998 11 9.19998C10.6 9.39998 10.3 9.59998 9.99998 9.99998C9.39998 10.6 9.09998 11.5 9.09998 12.3C9.09998 12.7 9.19998 13 9.39998 13.4C9.59998 13.7 9.79998 14 10.1 14.1C10.6 14.4 11.4 14.3 11.9 13.8C12 13.7 12.1 13.6 12.1 13.5C12.1 13.4 12.2 13.3 12.2 13.3C12.2 13.1 12.1 13 12 13C11.4 12.8 11.1 12.1 11.3 11.4C11.5 10.7 12.2 10.4 12.9 10.7C12.8 10.6 12.8 10.6 12.9 10.7Z" fill="white"/>
</svg>
